<svg width="104.750000" height="36.607300" viewBox="0 0 104.75 36.6073" fill="none" xmlns="http://www.w3.org/2000/svg" xmlns:xlink="http://www.w3.org/1999/xlink">
	<desc>
			Created with Pixso.
	</desc>
	<defs/>
	<path id="Vector" d="M90.05 5.13C87.14 5.13 84.3 5.88 81.88 7.28C79.47 8.68 77.58 10.67 76.47 13C75.36 15.32 75.06 17.88 75.63 20.35C76.2 22.83 77.6 25.1 79.65 26.88C81.71 28.66 84.33 29.87 87.18 30.36C90.03 30.85 92.99 30.6 95.67 29.64C98.36 28.67 100.65 27.04 102.27 24.95C103.88 22.85 104.75 20.39 104.75 17.87C104.74 14.49 103.19 11.26 100.44 8.87C97.68 6.48 93.95 5.14 90.05 5.13ZM90.05 25.7C88.26 25.7 86.51 25.25 85.03 24.38C83.54 23.52 82.38 22.3 81.7 20.87C81.01 19.44 80.83 17.86 81.18 16.34C81.53 14.82 82.39 13.43 83.65 12.33C84.92 11.24 86.53 10.49 88.28 10.19C90.04 9.89 91.85 10.04 93.51 10.63C95.16 11.23 96.57 12.23 97.56 13.52C98.56 14.81 99.09 16.32 99.09 17.87C99.08 19.95 98.13 21.94 96.44 23.41C94.74 24.87 92.44 25.7 90.05 25.7ZM56.4 5.13C53.49 5.13 50.65 5.88 48.24 7.28C45.82 8.68 43.93 10.67 42.82 13C41.71 15.32 41.42 17.88 41.99 20.36C42.55 22.83 43.95 25.1 46.01 26.88C48.06 28.66 50.68 29.87 53.53 30.36C56.38 30.85 59.34 30.6 62.03 29.64C64.71 28.67 67.01 27.04 68.62 24.95C70.24 22.85 71.1 20.39 71.1 17.87C71.09 14.49 69.54 11.26 66.79 8.87C64.03 6.48 60.3 5.14 56.4 5.13ZM56.4 25.7C54.74 25.71 53.1 25.31 51.68 24.55C50.26 23.8 49.11 22.72 48.35 21.44C47.59 20.15 47.26 18.71 47.38 17.27C47.51 15.83 48.1 14.45 49.07 13.28C50.05 12.11 51.38 11.2 52.91 10.64C54.45 10.09 56.14 9.91 57.78 10.13C59.43 10.35 60.97 10.96 62.24 11.9C63.51 12.83 64.46 14.05 64.98 15.42L56.4 15.42L56.4 20.32L64.98 20.32C64.39 21.89 63.24 23.25 61.7 24.21C60.15 25.18 58.3 25.7 56.4 25.7Z" fill="#FF70D9" fill-opacity="1.000000" fill-rule="nonzero"/>
	<path id="Vector" d="M2.03 11.7C3.94 12.06 6.77 12.76 6.77 13.42C6.77 14.34 5.64 17.83 6.77 19.89C7.9 21.94 11.49 23.07 11.8 23.48C12.11 23.89 13.55 23.38 13.86 26.35C14.16 29.33 16.42 29.95 17.76 30.56C19.09 31.18 20.43 32 20.12 32.72C19.81 33.44 16.73 32.41 15.81 33.85C15.58 34.2 15.41 34.83 15.28 35.59M32.42 28.73C31.76 27.84 30.78 27.16 29.36 27.38C26.07 27.89 27.82 25.33 25.46 26.35C23.57 27.18 22.21 29.5 21.76 30.56C21.62 29.91 21.1 28.49 20.12 28C18.89 27.38 18.48 28.41 17.76 27.38C17.04 26.35 17.04 24.92 16.42 23.48C15.81 22.04 18.48 19.89 20.12 20.71C21.76 21.53 22.79 21.02 23.61 22.25C24.43 23.48 25.46 25.02 25.46 20.71C25.46 16.4 27.51 14.44 28.43 14.55C29.36 14.65 32.23 13.62 31.72 12.6C31.21 11.57 28.43 11.06 28.43 10.13C28.43 9.21 29.67 7.26 28.43 6.33C27.2 5.41 24.12 3.56 21.76 3.77C19.4 3.97 18.67 4.9 18.67 5.72C18.67 6.54 21.76 8.08 20.12 9.11C18.48 10.13 13.14 11.77 13.14 10.13C13.14 8.49 12.83 5 13.86 5C14.88 5 15.19 2.43 15.81 2.54C16.42 2.64 18.99 1.51 20.12 2.02C20.46 2.18 21.6 1.88 22.88 1.35M32.42 28.73C29.22 33.05 24.09 35.85 18.3 35.85C17.27 35.85 16.26 35.76 15.28 35.59C7.02 34.16 0.75 26.96 0.75 18.3C0.75 15.96 1.2 13.73 2.03 11.7C4.64 5.27 10.94 0.75 18.3 0.75C19.88 0.75 21.42 0.96 22.88 1.35C30.35 3.37 35.85 10.19 35.85 18.3C35.85 22.2 34.58 25.81 32.42 28.73Z" stroke="#FF70D9" stroke-opacity="1.000000" stroke-width="1.500000" stroke-linejoin="round"/>
</svg>
